<svg width="20" height="20" viewBox="0 0 20 20" fill="none" xmlns="http://www.w3.org/2000/svg">
<g clip-path="url(#clip0)">
<path fill-rule="evenodd" clip-rule="evenodd" d="M19.4398 1.57352C18.6338 2.07927 17.7433 2.44709 16.7915 2.6439C16.0333 1.78603 14.9497 1.25 13.75 1.25C11.4505 1.25 9.58424 3.22815 9.58424 5.66775C9.58424 6.01427 9.62003 6.35012 9.69162 6.67365C6.2282 6.48918 3.15797 4.73251 1.1014 2.05629C0.742364 2.71118 0.537357 3.47093 0.537357 4.28002C0.537357 5.81185 1.27278 7.16426 2.39164 7.95653C1.70937 7.93522 1.0656 7.73449 0.502647 7.40592V7.45975C0.502647 9.60106 1.93932 11.3875 3.8473 11.7917C3.49803 11.8954 3.12923 11.9476 2.74905 11.9476C2.48058 11.9476 2.21863 11.9207 1.96481 11.8691C2.49523 13.6235 4.03332 14.9014 5.85723 14.9356C4.4314 16.1209 2.63353 16.8274 0.681621 16.8274C0.345366 16.8274 0.0129078 16.8072 -0.3125 16.7668C1.53148 18.0183 3.7231 18.75 6.0758 18.75C13.7419 18.75 17.9326 12.0194 17.9326 6.18079C17.9326 5.98847 17.9293 5.79671 17.9223 5.60832C18.7363 4.98538 19.4436 4.20769 20 3.32179C19.2537 3.67278 18.45 3.91052 17.6072 4.01705C18.4679 3.47093 19.1284 2.60521 19.4398 1.57352" fill="#BDBDBD"/>
</g>
<defs>
<clipPath id="clip0">
<rect width="20" height="20" fill="white"/>
</clipPath>
</defs>
</svg>
