<svg width="14" height="9" viewBox="0 0 14 9" fill="none" xmlns="http://www.w3.org/2000/svg">
<path d="M3.02247 1.42518C2.43668 0.839393 1.48693 0.839393 0.901147 1.42518C0.315361 2.01097 0.315361 2.96071 0.901147 3.5465L3.02247 1.42518ZM6.96181 7.48584L5.90115 8.5465C6.18245 8.82781 6.56398 8.98584 6.96181 8.98584C7.35963 8.98584 7.74116 8.8278 8.02247 8.5465L6.96181 7.48584ZM13.0225 3.5465C13.6083 2.96071 13.6083 2.01096 13.0225 1.42518C12.4367 0.839391 11.4869 0.839392 10.9011 1.42518L13.0225 3.5465ZM0.901147 3.5465L5.90115 8.5465L8.02247 6.42518L3.02247 1.42518L0.901147 3.5465ZM8.02247 8.5465L13.0225 3.5465L10.9011 1.42518L5.90115 6.42518L8.02247 8.5465Z" fill="#92A8D1"/>
</svg>
