<svg width="20" height="20" viewBox="0 0 20 20" fill="none" xmlns="http://www.w3.org/2000/svg">
<path d="M13.8477 0H6.46484C3.06752 0 0.3125 2.75502 0.3125 6.15234V13.5352C0.3125 16.9325 3.06752 19.6875 6.46484 19.6875H13.8477C17.245 19.6875 20 16.9325 20 13.5352V6.15234C20 2.75502 17.245 0 13.8477 0ZM18.1543 13.5352C18.1543 15.91 16.2225 17.8418 13.8477 17.8418H6.46484C4.09004 17.8418 2.1582 15.91 2.1582 13.5352V6.15234C2.1582 3.77754 4.09004 1.8457 6.46484 1.8457H13.8477C16.2225 1.8457 18.1543 3.77754 18.1543 6.15234V13.5352Z" fill="#BDBDBD"/>
<path d="M10.1562 4.92188C7.43814 4.92188 5.23438 7.12564 5.23438 9.84375C5.23438 12.5619 7.43814 14.7656 10.1562 14.7656C12.8744 14.7656 15.0781 12.5619 15.0781 9.84375C15.0781 7.12564 12.8744 4.92188 10.1562 4.92188ZM10.1562 12.9199C8.46066 12.9199 7.08008 11.5393 7.08008 9.84375C7.08008 8.14693 8.46066 6.76758 10.1562 6.76758C11.8518 6.76758 13.2324 8.14693 13.2324 9.84375C13.2324 11.5393 11.8518 12.9199 10.1562 12.9199Z" fill="#BDBDBD"/>
<path d="M15.2271 5.20856C15.5893 5.20856 15.8829 4.91493 15.8829 4.55272C15.8829 4.19051 15.5893 3.89688 15.2271 3.89688C14.8649 3.89688 14.5712 4.19051 14.5712 4.55272C14.5712 4.91493 14.8649 5.20856 15.2271 5.20856Z" fill="#BDBDBD"/>
</svg>
